Coordinates
version=1
nRows=13
nColumns=36
inDegrees=yes

Units are S.I. units (second, meters, Newtons, ...)
If the header above contains a line with 'inDegrees', this indicates whether rotational values are in degrees (yes) or radians (no).

endheader
time	pelvis_tilt	pelvis_list	pelvis_rotation	pelvis_tx	pelvis_ty	pelvis_tz	hip_flexion_r	hip_adduction_r	hip_rotation_r	knee_angle_r	knee_angle_r_beta	ankle_angle_r	subtalar_angle_r	mtp_angle_r	hip_flexion_l	hip_adduction_l	hip_rotation_l	knee_angle_l	knee_angle_l_beta	ankle_angle_l	subtalar_angle_l	mtp_angle_l	lumbar_extension	lumbar_bending	lumbar_rotation	arm_flex_r	arm_add_r	arm_rot_r	elbow_flex_r	pro_sup_r	arm_flex_l	arm_add_l	arm_rot_l	elbow_flex_l	pro_sup_l
     30.28333330	     -5.56713854	     -4.52465683	     -6.25363511	      0.70769494	      0.91030907	      0.75081067	     23.68830436	      8.85873292	      2.21948991	     19.26004654	      0.33615123	      9.08578065	     -6.47862652	     -7.49999987	      5.89237039	     -6.22159929	     -6.59306769	     49.08146674	      0.85663320	     -0.93069396	     -3.94156514	     -7.49999987	      6.07112701	      7.70268849	      1.43487329	      0.19167315	    -13.12483532	     11.32944865	      9.78032785	     78.12735095	     -1.31544187	     -6.29656628	      4.98351747	     13.07262202	     79.37695755
     30.30000000	     -5.07938923	     -4.96099019	     -5.96037439	      0.70574320	      0.91814524	      0.75499793	     21.68847215	      9.35777822	      2.09797595	     18.82057519	      0.32848100	      9.43061038	     -7.07947734	     -7.49999987	      7.76523851	     -7.13685965	     -6.14906589	     52.68359948	      0.91950227	     -1.47681006	     -5.04463466	     -7.49999987	      5.43438020	      7.99439449	      2.31264453	     -0.10348361	    -13.48475833	     11.58887928	     11.05203513	     76.66569749	     -1.53998917	     -6.29760059	      6.24870811	     12.70171853	     78.08610583
     30.31666670	     -4.93235243	     -5.15887762	     -5.67960664	      0.70122080	      0.92202270	      0.75827484	     20.11194000	      9.63692843	      1.82574374	     18.25744047	      0.31865245	      9.97435571	     -7.31295645	     -7.49999987	     10.01285039	     -7.72053624	     -5.57318870	     55.69808771	      0.97211502	     -0.76910392	     -6.71158696	     -7.49999987	      5.16593356	      8.03013534	      2.88720675	      0.33458697	    -13.64155795	     11.49266031	     11.67774149	     76.61783115	     -1.84898453	     -6.41112772	      6.43249441	     12.60161070	     78.10370670
     30.33333330	     -4.93036147	     -5.22605000	     -5.33397646	      0.69704685	      0.92208211	      0.76032141	     18.67595787	      9.76396776	      1.46149899	     17.51179169	      0.30563842	     10.40743024	     -7.38264590	     -7.49999987	     12.36622345	     -8.09157448	     -4.93139789	     58.12434307	      1.01446116	      0.52451330	     -8.70606771	     -7.49999987	      4.94604735	      7.94597480	      3.38463165	      0.97757921	    -13.81274600	     11.37199639	     12.47269648	     76.52108044	     -1.92353069	     -6.60109148	      6.62173941	     12.45214522	     78.10265408
     30.35000000	     -4.93500406	     -5.17065831	     -5.05502165	      0.69433572	      0.91980656	      0.76170556	     17.27805664	      9.77927928	      1.16473260	     16.73505506	      0.29208181	     10.84580659	     -7.28314374	     -7.49999987	     14.64194947	     -8.33009258	     -4.48477335	     60.10353301	      1.04900454	      1.99170131	    -10.59677123	     -7.49999987	      4.66283452	      7.67304035	      3.98748366	      1.86033306	    -13.99715228	     11.30539627	     13.19774904	     76.44986567	     -1.82169116	     -6.83564939	      6.74773422	     12.42411817	     78.10313693
     30.36666670	     -5.04577462	     -4.94141517	     -4.81798631	      0.69344813	      0.91696837	      0.76265047	     15.93497842	      9.56254072	      0.71433659	     15.79378238	      0.27565350	     11.41460309	     -6.48027355	     -7.49999987	     17.01500048	     -8.32180435	     -4.15773237	     61.63953236	      1.07581279	      3.28133989	    -12.25784664	     -7.49999987	      4.47477603	      7.28485375	      4.55750345	      2.64305804	    -14.17715764	     11.17791774	     14.24292644	     74.66192672	     -1.72684884	     -7.11076527	      6.91231372	     12.38591663	     76.32287949
     30.38333330	     -4.90935020	     -4.64244635	     -4.78613040	      0.69303636	      0.91565872	      0.76401944	     14.27480146	      9.31198321	      0.67930884	     14.74624535	      0.25737053	     11.82455461	     -5.91869190	     -7.49999987	     19.07318955	     -8.20925976	     -4.12424751	     62.66023682	      1.09362744	      4.86481722	    -13.11274618	     -7.49999987	      3.87828702	      6.83189657	      5.32566098	      3.57649552	    -14.50316839	     11.19524532	     15.31530662	     73.66933256	     -1.59079679	     -7.44224794	      7.31357108	     12.73519380	     75.35769229
     30.40000000	     -4.60143676	     -4.19338434	     -4.80144569	      0.69109132	      0.91658480	      0.76647468	     12.44222128	      8.86208277	      0.67970944	     13.66782802	      0.23854860	     12.29012506	     -5.19266231	     -7.49999987	     20.87867603	     -7.84463290	     -4.21918051	     62.78507881	      1.09580635	      6.47372943	    -13.33988463	     -7.49999987	      3.02221256	      6.21280228	      6.10938435	      4.58386741	    -14.97218163	     11.93940228	     16.45047562	     74.29613819	     -1.27877881	     -7.98206263	      9.14139330	     13.06745972	     76.43962668
     30.41666670	     -4.34374452	     -3.66964776	     -4.87631818	      0.68689608	      0.91890452	      0.77000400	     10.84632119	      8.33350752	      0.50126919	     12.77221255	      0.22291716	     12.84665656	     -4.24468433	     -7.49999987	     22.59518090	     -7.39276457	     -4.45730392	     62.03408454	      1.08269902	      7.62948485	    -13.06614391	     -7.49999987	      2.09582442	      5.48128784	      6.73017599	      5.85836334	    -15.19534251	     11.46042586	     17.31571548	     73.04360459	     -0.99955600	     -8.31642342	      8.74243404	     13.65845474	     75.02038263
     30.43333330	     -3.72778452	     -3.08878100	     -5.00146175	      0.68259503	      0.92121718	      0.77351634	      8.99822548	      7.77769885	      0.65733274	     11.95708579	      0.20869052	     13.04088609	     -4.08560874	     -7.49999987	     23.60038234	     -6.86999715	     -4.87668046	     60.27959418	      1.05207739	      8.23174247	    -12.50742263	     -7.49999987	      0.63285431	      4.57247663	      7.23806032	      7.25729396	    -15.37244582	     11.38808621	     18.33714113	     72.96232437	     -0.63572959	     -8.79545570	      8.90050732	     14.26020584	     74.88100107
     30.45000000	     -3.22452865	     -2.54408991	     -5.23813142	      0.67970960	      0.92181374	      0.77604442	      7.44058565	      7.28693315	      0.83759798	     11.38376509	      0.19868418	     13.11435765	     -4.02001938	     -7.49999987	     24.38411370	     -6.41483147	     -5.43077948	     57.80048939	      1.00880885	      8.55095617	    -11.79199385	     -7.49999987	     -0.65013974	      3.71185336	      7.81108496	      8.50074598	    -15.56948513	     11.46024475	     19.33697001	     73.44414587	     -0.32227505	     -9.21394498	      9.09808003	     14.92115752	     75.38518406
     30.46666670	     -2.81003053	     -2.08701326	     -5.44537141	      0.67705876	      0.92035792	      0.77779631	      6.09142912	      6.86460827	      0.85766064	     11.00150855	      0.19201255	     13.05454870	     -3.93268170	     -7.49999987	     24.97658557	     -5.99237142	     -5.93520154	     54.76086033	      0.95575731	      8.68075643	    -11.10733772	     -7.49999987	     -1.73923799	      3.00174988	      8.31161085	      9.60365080	    -15.76580089	     10.67725276	     20.41799834	     77.87012102	      0.01039298	     -9.61510084	      9.23455565	     15.34882241	     79.92611292
     30.48333330	     -2.48525306	     -1.70115557	     -5.64695294	      0.67314734	      0.91769379	      0.77907934	      4.94006308	      6.50626173	      0.86620139	     10.80596079	      0.18859959	     13.04940401	     -3.78020333	     -7.49999987	     25.50028415	     -5.62676065	     -6.42380900	     51.35509339	      0.89631547	      8.84532244	    -10.39310203	     -7.49999987	     -2.67987159	      2.39928429	      8.61787248	     10.73068471	    -15.82299818	     10.12362939	     21.59252438	     77.14346142	      0.18942059	     -9.79051122	      8.68938904	     15.92697860	     79.03303342
